<svg width="39" height="39" viewBox="0 0 39 39" fill="none" xmlns="http://www.w3.org/2000/svg">
<g clip-path="url(#clip0_2257_1818)">
<path d="M36.2589 19.0339H23.166C22.9355 19.0339 22.727 18.8926 22.6434 18.6773C22.5597 18.4619 22.6174 18.2178 22.7875 18.0614L25.8203 15.2837V11.5266C25.8203 10.3387 26.786 9.37305 27.9753 9.37305H36.2589C37.4468 9.37305 38.4125 10.3387 38.4125 11.5266V16.8803C38.4125 18.0682 37.4468 19.0339 36.2589 19.0339ZM24.6077 17.9132H36.2588C36.828 17.9132 37.2917 17.4496 37.2917 16.8789V11.5266C37.2917 10.9559 36.828 10.4923 36.2588 10.4923H27.9751C27.4045 10.4923 26.9409 10.9559 26.9409 11.5266V15.5306C26.9409 15.6883 26.875 15.8379 26.7598 15.9436L24.6077 17.9132Z" fill="#2892FD"/>
<path d="M19.3032 8.96509H18.0206C17.7106 8.96509 17.4609 8.71412 17.4609 8.4054C17.4609 8.09667 17.7119 7.8457 18.0206 7.8457H19.3032C19.6132 7.8457 19.8629 8.09667 19.8629 8.4054C19.8629 8.71412 19.6118 8.96509 19.3032 8.96509Z" fill="#2892FD"/>
<path d="M34.2065 33.1724H3.14443C1.81522 33.1724 0.734375 32.0915 0.734375 30.7623V29.6183C0.734375 29.3083 0.985341 29.0586 1.29407 29.0586H17.4114C17.7215 29.0586 17.9711 29.3096 17.9711 29.6183C17.9711 29.9283 17.7202 30.178 17.4114 30.178H1.85365V30.7609C1.85365 31.4728 2.43255 32.0517 3.14443 32.0517H34.2064C34.9183 32.0517 35.4972 31.4728 35.4972 30.7609V30.178H19.9408C19.6308 30.178 19.3811 29.927 19.3811 29.6183C19.3811 29.3083 19.6321 29.0586 19.9408 29.0586H36.0583C36.3683 29.0586 36.618 29.3096 36.618 29.6183V30.7623C36.6179 32.0915 35.5356 33.1724 34.2065 33.1724Z" fill="#2892FD"/>
<path d="M17.4086 30.185H3.16907C2.85904 30.185 2.60938 29.9341 2.60938 29.6253V8.14194C2.60938 6.81272 3.69022 5.73047 5.01943 5.73047H32.3284C33.6577 5.73047 34.7385 6.81131 34.7385 8.14194V9.93607C34.7385 10.2461 34.4875 10.4958 34.1788 10.4958C33.8702 10.4958 33.6191 10.2448 33.6191 9.93607V8.14194C33.6191 7.43006 33.0402 6.85115 32.3283 6.85115H5.01955C4.30767 6.85115 3.72876 7.43006 3.72876 8.14194V29.0657H17.4086C17.7186 29.0657 17.9683 29.3167 17.9683 29.6254C17.9683 29.9341 17.7186 30.185 17.4086 30.185Z" fill="#2892FD"/>
<path d="M34.1821 30.1832H19.9425C19.6325 30.1832 19.3828 29.9322 19.3828 29.6235C19.3828 29.3148 19.6338 29.0638 19.9425 29.0638H33.6224V18.4757C33.6224 18.1657 33.8733 17.916 34.1821 17.916C34.4907 17.916 34.7417 18.167 34.7417 18.4757V29.6235C34.7417 29.9322 34.4908 30.1832 34.1821 30.1832Z" fill="#2892FD"/>
<path d="M18.6681 31.446C17.6612 31.446 16.8438 30.6271 16.8438 29.6202C16.8438 29.3102 17.0947 29.0605 17.4034 29.0605C17.7122 29.0605 17.9631 29.3115 17.9631 29.6202C17.9631 30.0084 18.28 30.3253 18.6682 30.3253C19.0564 30.3253 19.3732 30.0098 19.3732 29.6202C19.3732 29.3102 19.6242 29.0605 19.9329 29.0605C20.2415 29.0605 20.4926 29.3115 20.4926 29.6202C20.4938 30.6271 19.6749 31.446 18.6681 31.446Z" fill="#2892FD"/>
<path d="M24.0522 26.1352C23.7421 26.1352 23.4925 25.8842 23.4925 25.5755V23.0886C23.4925 23.0488 23.4869 23.009 23.4747 22.9706C23.4691 22.9528 23.4651 22.9363 23.461 22.9185C23.306 22.1805 22.6146 20.4631 19.5708 20.4631H18.7889C18.7451 20.4631 18.7025 20.4576 18.6614 20.4481C18.6203 20.4576 18.5777 20.4631 18.5339 20.4631H17.752C14.7082 20.4631 14.0168 22.1805 13.8618 22.9185C13.8577 22.9363 13.8535 22.9542 13.8481 22.9706C13.8357 23.009 13.8303 23.0474 13.8303 23.0886V25.5755C13.8303 25.8855 13.5794 26.1352 13.2706 26.1352C12.9619 26.1352 12.7109 25.8842 12.7109 25.5755V23.0886C12.7109 22.9445 12.7316 22.8005 12.7727 22.6634C12.9277 21.9528 13.6135 19.946 16.4132 19.4536C16.0291 18.9817 15.7973 18.3796 15.7973 17.7253V15.6773C15.7973 14.1671 17.025 12.9395 18.5352 12.9395H18.7889C20.2992 12.9395 21.5268 14.1672 21.5268 15.6773V17.7253C21.5268 18.3796 21.2964 18.9817 20.9109 19.4536C23.7091 19.946 24.395 21.9528 24.5514 22.6634C24.5925 22.8019 24.6117 22.9445 24.6117 23.0886V25.5755C24.6132 25.8855 24.3622 26.1352 24.0522 26.1352ZM18.5352 14.0587C17.6435 14.0587 16.9165 14.7844 16.9165 15.6759V17.7238C16.9165 18.6155 17.6422 19.341 18.5352 19.341C18.579 19.341 18.6216 19.3466 18.6627 19.3561C18.7038 19.3466 18.7464 19.341 18.7902 19.341C19.6819 19.341 20.4089 18.6154 20.4089 17.7238V15.676C20.4089 14.7844 19.6832 14.0588 18.7902 14.0588L18.5352 14.0587Z" fill="#2892FD"/>
</g>
<defs>
<clipPath id="clip0_2257_1818">
<rect width="37.6777" height="37.6777" fill="white" transform="translate(0.734375 0.605469)"/>
</clipPath>
</defs>
</svg>
