<svg width="20" height="21" viewBox="0 0 20 21" fill="none" xmlns="http://www.w3.org/2000/svg">
<path d="M9.88475 20.7285C10.5796 20.7285 11.246 20.4668 11.7374 20.0011C12.2287 19.5354 12.5047 18.9037 12.5047 18.2451H7.26478C7.26478 18.9037 7.54081 19.5354 8.03215 20.0011C8.52349 20.4668 9.18989 20.7285 9.88475 20.7285ZM11.1882 2.22606C11.2065 2.0534 11.1864 1.87904 11.1292 1.7142C11.072 1.54936 10.979 1.39771 10.8562 1.26903C10.7334 1.14035 10.5835 1.0375 10.4162 0.967111C10.2488 0.89672 10.0678 0.860352 9.88475 0.860352C9.70169 0.860352 9.52066 0.89672 9.35333 0.967111C9.18601 1.0375 9.03611 1.14035 8.91329 1.26903C8.79048 1.39771 8.69749 1.54936 8.64031 1.7142C8.58313 1.87904 8.56303 2.0534 8.58131 2.22606C7.10066 2.51152 5.76959 3.27325 4.81348 4.38225C3.85738 5.49126 3.33501 6.87938 3.33482 8.31158C3.33482 9.67496 2.67982 15.7617 0.714844 17.0034H19.0547C17.0897 15.7617 16.4347 9.67496 16.4347 8.31158C16.4347 5.30669 14.1815 2.79847 11.1882 2.22606V2.22606Z" fill="#158EF9"/>
</svg>
